<svg xmlns="http://www.w3.org/2000/svg" version="1.1" xmlns:xlink="http://www.w3.org/1999/xlink" xmlns:svgjs="http://svgjs.dev/svgjs" width="1000" height="611" viewBox="0 0 1000 611"><g transform="matrix(1,0,0,1,-0.6060606060606233,-0.09503960738715023)"><svg viewBox="0 0 396 242" data-background-color="#000000" preserveAspectRatio="xMidYMid meet" height="611" width="1000" xmlns="http://www.w3.org/2000/svg" xmlns:xlink="http://www.w3.org/1999/xlink"><g id="tight-bounds" transform="matrix(1,0,0,1,0.2400000000000091,0.03784273871056598)"><svg viewBox="0 0 395.52 241.924514732668" height="241.924514732668" width="395.52"><g><svg viewBox="0 0 397.49759999999986 243.13413730633127" height="241.924514732668" width="395.52"><g><rect width="397.49759999999986" height="6.955027854129884" x="0" y="124.79080578828446" fill="#808080" opacity="1" stroke-width="0" stroke="transparent" fill-opacity="1" class="rect-o-0" data-fill-palette-color="primary" rx="1%" id="o-0" data-palette-color="#808080"></rect></g><g><rect width="397.49759999999986" height="6.955027854129884" x="0" y="140.84927324206078" fill="#808080" opacity="1" stroke-width="0" stroke="transparent" fill-opacity="1" class="rect-o-1" data-fill-palette-color="primary" rx="1%" id="o-1" data-palette-color="#808080"></rect></g><g transform="matrix(1,0,0,1,0.9887999999999693,166.01118029548357)"><svg viewBox="0 0 395.5199999999999 77.12295701084773" height="77.12295701084773" width="395.5199999999999"><g id="textblocktransform"><svg viewBox="0 0 395.5199999999999 77.12295701084773" height="77.12295701084773" width="395.5199999999999" id="textblock"><g><svg viewBox="0 0 395.5199999999999 77.12295701084773" height="77.12295701084773" width="395.5199999999999"><g transform="matrix(1,0,0,1,0,0)"><svg width="395.5199999999999" viewBox="1.8799999952316284 -35.70000076293945 186.64999389648438 36.400001525878906" height="77.12295701084773" data-palette-color="#808080"><path d="M19.65 0.7L19.65 0.7Q14.45 0.7 10.44-1.55 6.43-3.8 4.15-7.89 1.88-11.98 1.88-17.5L1.88-17.5Q1.88-23.03 4.19-27.11 6.5-31.2 10.58-33.45 14.65-35.7 19.85-35.7L19.85-35.7Q22.55-35.7 24.93-35.13 27.3-34.55 29.08-33.65L29.08-33.65 28.48-28.53Q26.6-29.43 24.45-30.03 22.3-30.63 19.8-30.63L19.8-30.63Q15.85-30.63 13.2-28.89 10.55-27.15 9.19-24.19 7.83-21.23 7.83-17.5L7.83-17.5Q7.83-13.78 9.16-10.81 10.5-7.85 13.14-6.11 15.78-4.38 19.68-4.38L19.68-4.38Q22.25-4.38 24.36-4.94 26.48-5.5 28.48-6.45L28.48-6.45 29.08-1.33Q27.15-0.45 24.79 0.13 22.43 0.7 19.65 0.7ZM38.92 0L33.07 0 33.07-5.93 38.92-5.93 38.92 0ZM50.87 0L45.27 0 45.27-35 57.25-35Q60.9-35 63.61-33.86 66.32-32.73 67.82-30.38 69.32-28.03 69.32-24.38L69.32-24.38Q69.32-20.68 67.73-18.31 66.15-15.95 63.3-14.58L63.3-14.58 71.17 0 64.8 0 57.85-13.38Q57.77-13.38 57.72-13.38 57.67-13.38 57.6-13.38L57.6-13.38 50.87-13.38 50.87 0ZM50.87-30.28L50.87-18.1 56.5-18.1Q60.22-18.1 61.93-19.78 63.65-21.45 63.65-24.23L63.65-24.23Q63.65-27.1 61.95-28.69 60.25-30.28 56.6-30.28L56.6-30.28 50.87-30.28ZM80.27 0L74.42 0 74.42-5.93 80.27-5.93 80.27 0ZM105.62-13.83L105.62-8.95 90.77-8.95 90.77-13.83 105.62-13.83ZM107.92 0L97.44-29.68 98.94-29.68 88.47 0 82.97 0 95.47-35 100.92-35 113.42 0 107.92 0ZM121.96 0L116.11 0 116.11-5.93 121.96-5.93 121.96 0ZM138.39 0.7L138.39 0.7Q136.24 0.7 134.02 0.34 131.81-0.03 129.94-0.58 128.06-1.13 126.86-1.68L126.86-1.68 127.56-7.48Q129.09-6.73 131-6.03 132.91-5.33 135.04-4.85 137.16-4.38 139.34-4.38L139.34-4.38Q142.36-4.38 144.16-5.51 145.96-6.65 145.96-9.05L145.96-9.05Q145.96-10.85 145.01-11.99 144.06-13.13 142.15-13.96 140.24-14.8 137.29-15.73L137.29-15.73Q134.46-16.63 132.12-17.82 129.79-19.03 128.39-20.96 126.99-22.9 126.99-26.03L126.99-26.03Q126.99-28.85 128.42-31.04 129.86-33.23 132.66-34.46 135.46-35.7 139.59-35.7L139.59-35.7Q142.94-35.7 145.82-34.96 148.71-34.23 150.66-33.38L150.66-33.38 150.11-27.68Q147.21-29.23 144.62-29.93 142.04-30.63 139.31-30.63L139.31-30.63Q136.36-30.63 134.55-29.58 132.74-28.53 132.74-26.25L132.74-26.25Q132.74-24.6 133.61-23.59 134.49-22.58 136.19-21.85 137.89-21.13 140.34-20.35L140.34-20.35Q144.06-19.23 146.66-17.8 149.26-16.38 150.62-14.33 151.99-12.28 151.99-9.25L151.99-9.25Q151.99-7.3 151.3-5.53 150.61-3.75 149.04-2.34 147.46-0.93 144.85-0.11 142.24 0.7 138.39 0.7ZM161.78 0L155.93 0 155.93-5.93 161.78-5.93 161.78 0ZM178.46 0L173 0 173-29.9 162.93-29.9 162.93-35 188.53-35 188.53-29.9 178.46-29.9 178.46 0Z" opacity="1" transform="matrix(1,0,0,1,0,0)" fill="#808080" class="undefined-text-0" data-fill-palette-color="primary" id="text-0"></path></svg></g></svg></g></svg></g></svg></g><g transform="matrix(1,0,0,1,145.45661608913818,0)"><svg viewBox="0 0 106.58436782172349 106.58392658899157" height="106.58392658899157" width="106.58436782172349"><g><svg xmlns="http://www.w3.org/2000/svg" xmlns:xlink="http://www.w3.org/1999/xlink" version="1.0" x="0" y="0" viewBox="4.667734146118164 4.6859588623046875 90.3050308227539 90.30465698242188" enable-background="new 0 0 100 100" xml:space="preserve" height="106.58392658899157" width="106.58436782172349" class="icon-icon-0" data-fill-palette-color="accent" id="icon-0"><path d="M17.504 35.743c-1.334 8.611 0.522 17.134 5.093 23.382 3.514 4.801 8.413 7.905 13.796 8.739 5.677 0.88 11.253-0.429 15.703-3.685 1.248-0.912 2.36-1.946 3.326-3.076-2.222 0.978-4.814 1.267-7.626 0.831-11.717-1.816-19.673-13.464-17.735-25.964 0.934-6.03 4.384-11.497 9.713-15.397 6.768-4.952 15.953-6.97 25.201-5.537 7.474 1.158 17.67 5.964 25.56 15.213 0 0-22.835-39.421-56.115-20.356C23.689 16.04 18.653 28.323 17.504 35.743z" fill="#dedede" data-fill-palette-color="accent"></path><path d="M82.544 65.256c1.659-8.555 0.125-17.141-4.207-23.557-3.331-4.931-8.109-8.217-13.457-9.253-5.639-1.094-11.261 0.004-15.83 3.091-1.282 0.863-2.431 1.854-3.44 2.947 2.257-0.894 4.859-1.084 7.652-0.543 11.64 2.257 19.151 14.196 16.744 26.616-1.161 5.989-4.815 11.324-10.288 15.019-6.949 4.692-16.205 6.364-25.393 4.582C26.902 82.719 16.894 77.532 9.358 67.992c0 0 21.331 40.255 55.307 22.457C75.621 84.712 81.115 72.628 82.544 65.256z" fill="#dedede" data-fill-palette-color="accent"></path><path d="M35.726 82.88c8.611 1.334 17.133-0.522 23.381-5.094 4.801-3.514 7.905-8.413 8.74-13.796 0.879-5.676-0.429-11.253-3.686-15.702-0.912-1.248-1.946-2.36-3.076-3.327 0.979 2.222 1.267 4.815 0.831 7.626-1.816 11.717-13.463 19.673-25.965 17.736-6.029-0.934-11.497-4.385-15.395-9.713-4.952-6.768-6.971-15.954-5.538-25.202 1.158-7.474 5.964-17.67 15.213-25.559 0 0-39.421 22.835-20.356 56.115C16.022 76.695 28.305 81.73 35.726 82.88z" fill="#dedede" data-fill-palette-color="accent"></path><path d="M90.432 35.718c-5.738-10.955-17.822-16.45-25.194-17.879-8.554-1.659-17.141-0.125-23.557 4.208-4.931 3.331-8.217 8.108-9.254 13.456-1.094 5.64 0.004 11.261 3.092 15.83 0.863 1.282 1.854 2.431 2.946 3.441-0.894-2.257-1.084-4.859-0.542-7.652 2.257-11.64 14.196-19.151 26.615-16.744 5.99 1.161 11.324 4.816 15.019 10.289 4.693 6.949 6.363 16.204 4.583 25.392-1.44 7.423-6.626 17.431-16.167 24.966C67.973 91.025 108.228 69.694 90.432 35.718z" fill="#dedede" data-fill-palette-color="accent"></path></svg></g></svg></g><g></g></svg></g><defs></defs></svg><rect width="395.52" height="241.924514732668" fill="none" stroke="none" visibility="hidden"></rect></g></svg></g></svg>